# xmcd
#
# Track frame offsets:
#	150
#	10530
#	21232
#	35255
#	49397
#	78402
#	88602
#	102897
#	121460
#	139527
#	151642
#	163922
#	180430
#	194800
#	211684
#	225897
#	243715
#	266565
#
# Disc length: 4440 seconds
#
# Revision: 0
# Processed by: cddbd v1.5.1PL2 Copyright (c) Steve Scherf et al.
# Submitted via: dBpowerAMP V4.0
#
DISCID=e0115612
DTITLE=Charles Aznavour - Grandes Exitos Disco 2
DYEAR=2001
DGENRE=Undefined
TTITLE0=For me formidable
TTITLE1=Les Comédiens
TTITLE2=Je t'attends
TTITLE3=Toi et moi
TTITLE4=Non je n'ai rien oublié
TTITLE5=Il fallait bien
TTITLE6=Désormais
TTITLE7=Bon anniversaire
TTITLE8=La Bohemia
TTITLE9=Venecia sin ti
TTITLE10=Y por tanto
TTITLE11=Quién
TTITLE12=Yo te daré calor
TTITLE13=Adiós a mamá
TTITLE14=Con
TTITLE15=Morir de amor
TTITLE16=She
TTITLE17=DATA
EXTD=Perla Snell
EXTT0=
EXTT1=
EXTT2=
EXTT3=
EXTT4=
EXTT5=
EXTT6=
EXTT7=
EXTT8=
EXTT9=
EXTT10=
EXTT11=
EXTT12=
EXTT13=
EXTT14=
EXTT15=
EXTT16=
EXTT17=
PLAYORDER=
